# xmcd
#
# Track frame offsets:
#	150
#	17193
#	34170
#
# Disc length: 684 seconds
#
# Revision: 2
# Processed by: cddbd v1.5.1PL0 Copyright (c) Steve Scherf et al.
# Submitted via: audiograbber 1.82.00
#
DISCID=1d02aa03
DTITLE=David Phelps - With His Love (Sing Holy) (Radio single)
DYEAR=1900
DGENRE=
TTITLE0=AC Radio Mix
TTITLE1=INSP Radio Mix
TTITLE2=Radio Lite Remix
EXTD=
EXTT0=
EXTT1=
EXTT2=
PLAYORDER=
